<svg xmlns="http://www.w3.org/2000/svg" viewBox="0 0 2500 435.6" style="enable-background:new 0 0 2500 435.6" xml:space="preserve"><path d="M330.6 200.5c-1-15.7-5.2-31.5-13.6-45.1l-71.4-125C240.3 21 236.1 10.5 234 0l-3.1 5.2c-17.8 30.4-17.8 69.3 0 99.7l57.7 99.7c17.8 30.4 17.8 69.3 0 99.7l-3.1 5.2c-2.1-10.5-6.3-21-11.5-30.4l-52.5-91.3-33.6-58.8c-5.2-9.4-9.4-19.9-11.5-30.4l-3.1 5.2c-17.8 30.4-17.8 68.2 0 99.7l57.7 99.7c17.8 30.4 17.8 69.3 0 99.7l-3.1 5.2c-2.1-10.5-6.3-21-11.5-30.4L144 252.8c-9.4-16.8-13.6-35.7-13.6-54.6C53.5 218.3 0 261.3 0 310.7 0 380 102.9 435.6 229.8 435.6S459.6 380 459.6 310.7c1.1-47.3-51.3-90.3-129-110.2zm217.3 213c1-17.8 3.1-29.4 8.4-44.1 24.1 11.5 55.6 16.8 78.7 16.8 39.9 0 63-12.6 63-38.8 0-25.2-16.8-36.7-56.7-54.6l-22-8.4c-40.9-17.8-68.2-40.9-68.2-86.1 0-49.3 34.6-80.8 103.9-80.8 28.3 0 54.6 4.2 78.7 12.6-1 16.8-4.2 30.4-8.4 43-23.1-8.4-51.4-12.6-71.4-12.6-37.8 0-54.6 14.7-54.6 37.8 0 22 16.8 35.7 47.2 48.3l23.1 9.4c54.6 23.1 77.7 48.3 77.7 90.3 0 49.3-37.8 84-111.3 84-34.6 0-64-5.2-88.1-16.8zm431.3-206.7V423h-44.1l-2.1-26.2c-12.6 18.9-30.4 31.5-60.9 31.5-56.7 0-95.5-42-95.5-114.4 0-75.6 40.9-119.6 120.7-119.6 31.5.9 57.8 4.1 81.9 12.5zM932 373.6V238.2c-9.4-2.1-21-2.1-34.6-2.1-49.3 0-72.4 30.4-72.4 78.7 0 44.1 17.8 75.6 59.8 75.6 19.9-1 34.6-7.3 47.2-16.8zm290.7-95.5V423h-47.2V286.5c0-34.6-11.5-50.4-58.8-50.4-11.5 0-24.1 1-37.8 3.1V423h-47.2V206.8c30.4-7.3 64-12.6 86.1-12.6 79.7 1 104.9 31.5 104.9 83.9zM1355 388.3c13.6 0 27.3-2.1 36.7-6.3-1 12.6-3.1 27.3-5.2 39.9-12.6 5.2-27.3 7.3-39.9 7.3-46.2 0-75.6-21-75.6-73.5V128c14.7-5.2 32.5-7.3 47.2-7.3v81.9h75.6c-1 14.7-2.1 28.3-4.2 40.9h-71.4v106c0 27.3 13.7 38.8 36.8 38.8zm255-181.5V423h-44.1l-2.1-26.2c-12.6 18.9-30.4 31.5-60.9 31.5-56.7 0-95.5-42-95.5-114.4 0-75.6 40.9-119.6 120.7-119.6 31.5.9 56.7 4.1 81.9 12.5zm-48.3 166.8V238.2c-9.4-2.1-21-2.1-34.6-2.1-49.3 0-72.4 30.4-72.4 78.7 0 44.1 17.8 75.6 59.8 75.6 19.9-1 35.7-7.3 47.2-16.8zm291.8-95.5V423h-48.3V286.5c0-34.6-11.5-50.4-58.8-50.4-11.5 0-24.1 1-37.8 3.1V423h-47.2V206.8c30.4-7.3 64-12.6 86.1-12.6 79.7 1 106 31.5 106 83.9zm240.3-157.4V423h-44.1l-2.1-27.3c-12.6 19.9-30.4 32.5-61.9 32.5-56.7 0-95.5-42-95.5-114.4 0-75.6 40.9-119.6 120.7-119.6 12.6 0 24.1 1 35.7 3.1v-71.4c14.7-4.2 31.5-5.2 47.2-5.2zm-47.2 252.9V240.3c-12.6-2.1-25.2-4.2-37.8-4.2-47.2 0-69.3 29.4-69.3 78.7 0 44.1 17.8 75.6 59.8 75.6 19-1 34.7-7.3 47.3-16.8zm286.5-43h-152.2c6.3 38.8 28.3 56.7 71.4 56.7 26.2 0 52.5-5.2 75.6-16.8-2.1 12.6-4.2 29.4-7.3 43-22 9.4-44.1 13.6-70.3 13.6-79.8 0-117.5-44.1-117.5-117.5 0-64 29.4-115.4 105-115.4 68.2 0 97.6 44.1 97.6 98.7-.2 14.6-.2 25.1-2.3 37.7zm-152.2-39.9H2288c0-35.7-18.9-56.7-51.4-56.7-34.7 1.1-52.5 20-55.7 56.7zm319.1-93.4c0 14.7-2.1 31.5-4.2 40.9-11.5-1-22-2.1-35.7-2.1-11.5 0-23.1 1-34.6 2.1V423h-47.2V206.8c19.9-7.3 54.6-12.6 80.8-12.6 13.6 1 30.4 1 40.9 3.1z" style="fill:#ea1d25"/></svg>